<svg width="48" height="48" viewBox="0 0 48 48" fill="none" xmlns="http://www.w3.org/2000/svg">
<g clip-path="url(#clip0_144_4)">
<path d="M48 0H0V48H48V0Z" fill="#323238"/>
<path d="M7.50438 15C8.99771 14.6533 10.3844 14.48 11.6644 14.48C12.9444 14.48 14.0244 14.52 14.9044 14.6V30.56C15.9444 30.96 16.6777 31.4133 17.1044 31.92L16.7044 35H7.50438L7.10438 31.92C7.47771 31.4133 8.21104 30.96 9.30438 30.56V19.44C8.37104 19.12 7.63771 18.6667 7.10438 18.08L7.50438 15ZM12.0244 12.24C9.81104 12.24 8.70438 11.24 8.70438 9.24C8.70438 7.21333 9.81104 6.2 12.0244 6.2C14.2644 6.2 15.3844 7.21333 15.3844 9.24C15.3844 11.24 14.2644 12.24 12.0244 12.24ZM19.1041 15C20.5707 14.68 21.8907 14.52 23.0641 14.52C24.2374 14.52 25.2107 14.5467 25.9841 14.6V16.6C26.6507 16.04 27.5307 15.5867 28.6241 15.24C29.7441 14.8667 30.8107 14.68 31.8241 14.68C34.4374 14.68 36.2641 15.2933 37.3041 16.52C38.3707 17.7467 38.9041 19.8667 38.9041 22.88V30.56C39.9441 30.96 40.6774 31.4133 41.1041 31.92L40.7041 35H31.5041L31.1041 31.92C31.4774 31.4133 32.2107 30.96 33.3041 30.56V22.64C33.3041 21.2 33.0641 20.24 32.5841 19.76C32.1307 19.2533 31.3041 19 30.1041 19C28.9041 19 27.7041 19.4267 26.5041 20.28V30.56C27.5441 30.96 28.2774 31.4133 28.7041 31.92L28.3041 35H19.1041L18.7041 31.92C19.0774 31.4133 19.8107 30.96 20.9041 30.56V19.44C19.9707 19.12 19.2374 18.6667 18.7041 18.08L19.1041 15Z" fill="white"/>
</g>
<defs>
<clipPath id="clip0_144_4">
<rect width="48" height="48" fill="white"/>
</clipPath>
</defs>
</svg>
